#!OML:ASF Y:\EmotionMaleHayes\Project 1\Capture day 1\Session 1\Male1.ASF
:FULLY-SPECIFIED
:DEGREES
643
root 37.696 16.3736 -3.34186 -166.769 -27.3014 -207.617
lowerback 27.7682 5.00375 -8.199
upperback 11.5041 2.30493 0.698331
thorax -2.80659 0.0111562 4.81581
lowerneck -8.90192 -16.2653 -15.1727
upperneck 15.4229 -23.0529 12.5101
head 9.52639 -10.8067 3.48931
rclavicle 9.70069e-014 -1.90833e-014
rhumerus -54.8103 7.0631 -64.5346
rradius 80.1622
rwrist -10.9408
rhand -42.5836 -21.7219
rfingers 7.12502
rthumb -15.4573 -51.1238
lclavicle 9.70069e-014 -1.90833e-014
lhumerus -17.7196 16.5175 -14.8343
lradius 44.5717
lwrist 30.7727
lhand -34.9074 -24.4822
lfingers 7.12502
lthumb -8.05543 5.34428
rfemur -30.0032 -28.7919 -11.1799
rtibia 51.2341
rfoot -25.3299 -25.4126
rtoes 40.6581
lfemur -7.4344 18.2789 20.778
ltibia 43.2958
lfoot 11.5917 5.02748
ltoes 0.534972
644
root 37.8834 16.2036 -3.43453 -167.052 -26.5069 -208.479
lowerback 28.0617 5.31931 -9.12359
upperback 11.602 2.36662 0.511433
thorax -2.85443 -0.0125416 5.11341
lowerneck -9.08404 -16.3598 -14.8963
upperneck 15.0024 -23.1573 12.7226
head 9.4239 -10.8202 3.49619
rclavicle 3.33958e-014 -9.54166e-015
rhumerus -51.4386 5.3061 -64.4058
rradius 79.1564
rwrist -10.836
rhand -42.3782 -21.3395
rfingers 7.12502
rthumb -15.2594 -50.7566
lclavicle 3.33958e-014 -9.54166e-015
lhumerus -15.7439 17.6497 -15.366
lradius 44.6798
lwrist 30.251
lhand -35.4274 -24.7889
lfingers 7.12502
lthumb -8.55722 5.01769
rfemur -31.2505 -29.2951 -11.0655
rtibia 53.6787
rfoot -25.6088 -24.4987
rtoes 40.0015
lfemur -7.90217 17.7408 21.233
ltibia 45.6531
lfoot 10.9741 3.37802
ltoes -1.4748
645
root 38.0766 16.0306 -3.51829 -167.556 -25.69 -208.803
lowerback 28.3371 5.52339 -9.98343
upperback 11.6381 2.32266 0.61656
thorax -2.95407 -0.0852323 5.7332
lowerneck -8.88309 -16.2482 -14.9843
upperneck 14.1773 -22.8647 12.8629
head 9.09431 -10.7067 3.6408
rclavicle 1.11319e-014 3.81667e-014
rhumerus -47.7668 4.40596 -64.221
rradius 78.0778
rwrist -11.1394
rhand -41.9034 -21.1596
rfingers 7.12502
rthumb -14.802 -50.611
lclavicle 1.11319e-014 3.81667e-014
lhumerus -14.5148 18.616 -15.7256
lradius 44.9209
lwrist 29.5957
lhand -36.0739 -25.0439
lfingers 7.12502
lthumb -9.18108 4.73626
rfemur -33.1891 -29.7115 -10.0436
rtibia 56.6059
rfoot -25.3153 -24.6654
rtoes 39.3359
lfemur -8.4842 17.2473 22.1233
ltibia 48.3886
lfoot 10.1399 1.42301
ltoes -2.41045
646
root 38.2672 15.8648 -3.59229 -168.43 -24.8126 -208.086
lowerback 28.5612 5.53535 -9.80883
upperback 11.6094 2.33538 0.764224
thorax -3.09557 -0.0828329 5.79361
lowerneck -8.49823 -16.0644 -15.0038
upperneck 13.2274 -22.4999 13.053
head 8.68217 -10.5656 3.82236
rclavicle 4.6118e-014 -1.90833e-014
rhumerus -44.1006 3.59513 -64.3299
rradius 76.8995
rwrist -11.2848
rhand -41.3756 -22.1048
rfingers 7.12502
rthumb -14.2936 -51.5928
lclavicle 4.6118e-014 -1.90833e-014
lhumerus -13.1843 19.678 -15.9534
lradius 45.24
lwrist 28.8526
lhand -36.6892 -25.3473
lfingers 7.12502
lthumb -9.77482 4.40585
rfemur -35.5111 -29.5758 -7.82186
rtibia 59.4032
rfoot -25.3622 -24.8277
rtoes 39.1857
lfemur -8.9866 16.9488 24.0292
ltibia 51.1555
lfoot 9.61084 -0.740604
ltoes -2.6134
647
root 38.4366 15.7207 -3.65038 -169.423 -23.8016 -206.636
lowerback 28.6114 5.34758 -8.63362
upperback 11.5611 2.40068 0.879893
thorax -3.16656 -0.0162375 5.22961
lowerneck -8.21452 -15.9016 -14.9991
upperneck 12.514 -22.2087 13.2484
head 8.37864 -10.4464 3.97377
rclavicle -6.20208e-014 9.54166e-015
rhumerus -40.0798 2.20547 -64.7379
rradius 74.9847
rwrist -11.148
rhand -41.0262 -22.1077
rfingers 7.12502
rthumb -13.9569 -51.6192
lclavicle -6.20208e-014 9.54166e-015
lhumerus -11.7064 20.7301 -15.9181
lradius 45.6479
lwrist 28.1406
lhand -37.4249 -25.9678
lfingers 7.12502
lthumb -10.4846 3.75078
rfemur -37.8909 -29.0196 -4.88376
rtibia 61.8962
rfoot -25.4963 -24.5169
rtoes 38.858
lfemur -9.50472 16.7597 26.4704
ltibia 54.0587
lfoot 9.32455 -2.72439
ltoes -2.38844
648
root 38.5888 15.5913 -3.70388 -170.307 -22.7609 -204.979
lowerback 28.3991 5.08623 -7.23008
upperback 11.5668 2.4693 1.12592
thorax -3.04789 0.0481641 4.68072
lowerneck -8.34042 -15.8207 -15.0132
upperneck 12.1338 -21.9688 13.1343
head 8.22683 -10.3431 3.98186
rclavicle -3.81667e-014 9.22361e-014
rhumerus -35.9397 1.09849 -65.1644
rradius 73.1505
rwrist -11.5298
rhand -41.0036 -22.6551
rfingers 7.12502
rthumb -13.9351 -52.1682
lclavicle -3.81667e-014 9.22361e-014
lhumerus -10.3389 21.8438 -15.3965
lradius 46.172
lwrist 27.4728
lhand -38.4453 -27.0506
lfingers 7.12502
lthumb -11.4688 2.6157
rfemur -39.9258 -28.1843 -1.8935
rtibia 63.9416
rfoot -25.678 -23.8185
rtoes 38.1047
lfemur -10.17 16.4554 28.8605
ltibia 57.1792
lfoot 9.21215 -4.335
ltoes -1.12531
